<svg xmlns="http://www.w3.org/2000/svg" viewBox="0 0 40.79 51.94"><defs><style>.cls-1{fill:#ccc;}</style></defs><title>Asset 6</title><g id="Layer_2" data-name="Layer 2"><g id="Layer_1-2" data-name="Layer 1"><path class="cls-1" d="M24.09,48.31l.16.09,1.09.52c2.06,1,4.11,1.93,6.16,2.91a.63.63,0,0,0,.74,0l.11-.06a21.49,21.49,0,0,0,2.49-1.47,12.6,12.6,0,0,0,1.87-1.56,11.54,11.54,0,0,0,1.8-2.42A14.67,14.67,0,0,0,40.15,42a23.41,23.41,0,0,0,.42-2.92c.06-.72.12-1.44.15-2.16s.05-1.47.05-2.21q0-10.46,0-20.91c0-.28,0-.28-.3-.28H32.77c-.43,0-.39,0-.4.39q0,9.28,0,18.56c0,.59,0,1.18,0,1.77s0,1.21-.08,1.81-.1,1.26-.16,1.89a16.07,16.07,0,0,1-.38,2.23,11.54,11.54,0,0,1-1.4,3.39,9.83,9.83,0,0,1-2.93,2.95,22.22,22.22,0,0,1-2.81,1.58Z"/><path class="cls-1" d="M26.86,0c0,.12,0,.24,0,.35q0,19.13,0,38.27c0,.08,0,.17,0,.25s0,.17-.17.19L25,39.35l-1.73.27-1.49.19L20.42,40l-.56.05c-.6,0-1.21.08-1.81.09-1.19,0-2.38,0-3.56,0-.5,0-1-.07-1.49-.11a19.94,19.94,0,0,1-2.59-.38,15.86,15.86,0,0,1-4.14-1.44A10.81,10.81,0,0,1,1.79,34,12.24,12.24,0,0,1,.48,30.53a14.4,14.4,0,0,1-.34-2.39c0-.4,0-.79-.05-1.19,0-.1,0-.2-.09-.26V26c.09-.06.09-.15.09-.24s0-.47,0-.71a14.13,14.13,0,0,1,.3-2,13.44,13.44,0,0,1,1.75-4.37,12.33,12.33,0,0,1,4.94-4.49,16,16,0,0,1,6.64-1.65c.75,0,1.5,0,2.25,0a10.28,10.28,0,0,1,1.89.27l.51.11c0-.15,0-.27,0-.4q0-6.11,0-12.22c0-.1,0-.19,0-.29ZM18.74,26.67q0-3.21,0-6.42c0-.07,0-.14,0-.21a.2.2,0,0,0-.16-.21,8.13,8.13,0,0,0-1.85-.37,10.25,10.25,0,0,0-1.54,0,7.83,7.83,0,0,0-2.29.48,5.58,5.58,0,0,0-3.07,2.76A8.84,8.84,0,0,0,9,26.75c0,.35,0,.69.06,1a7.54,7.54,0,0,0,.38,1.89A5.43,5.43,0,0,0,12.31,33a7.84,7.84,0,0,0,3.11.68,19.73,19.73,0,0,0,2.95-.17c.36,0,.36,0,.36-.41Q18.74,29.9,18.74,26.67Z"/><path class="cls-1" d="M40,0c0,.1,0,.21,0,.31q0,4,0,8c0,.35,0,.33-.33.33H31.82c-.32,0-.31,0-.31-.31q0-4,0-8c0-.1,0-.19,0-.29Z"/><path class="cls-1" d="M24.09,48.31l.43-.21a22.22,22.22,0,0,0,2.81-1.58,9.83,9.83,0,0,0,2.93-2.95,11.54,11.54,0,0,0,1.4-3.39,16.07,16.07,0,0,0,.38-2.23c.06-.63.12-1.26.16-1.89s.06-1.21.08-1.81,0-1.18,0-1.77q0-9.28,0-18.56c0-.44,0-.39.4-.39h7.72c.29,0,.3,0,.3.28q0,10.46,0,20.91c0,.74,0,1.47-.05,2.21s-.1,1.44-.15,2.16A23.41,23.41,0,0,1,40.15,42a14.67,14.67,0,0,1-1.62,4.29,11.54,11.54,0,0,1-1.8,2.42,12.6,12.6,0,0,1-1.87,1.56,21.49,21.49,0,0,1-2.49,1.47l-.11.06a.63.63,0,0,1-.74,0c-2-1-4.11-1.94-6.16-2.91l-1.09-.52Z"/></g></g></svg>