<svg xmlns="http://www.w3.org/2000/svg" viewBox="0 0 51.14 51.17"><defs><style>.cls-1{fill:#ccc;}</style></defs><title>Asset 17</title><g id="Layer_2" data-name="Layer 2"><g id="Layer_1-2" data-name="Layer 1"><path class="cls-1" d="M0,0Q25.1,0,50.21,0c.78,0,.94.15.93.93q0,24.65,0,49.3c0,.78-.15.94-.93.93q-25.1,0-50.21,0ZM25.45,48.07c7.16,0,14.31,0,21.47,0,.91,0,1.16-.23,1.16-1.15q0-21.36,0-42.72c0-.91-.23-1.16-1.15-1.16q-21.36,0-42.72,0C3.29,3.07,3,3.3,3,4.22q0,21.36,0,42.72c0,.91.23,1.16,1.15,1.16C11.28,48.06,18.36,48.07,25.45,48.07Z"/><path class="cls-1" d="M36.23,23.28c0,3.31,0,6.61,0,9.92a1,1,0,0,1-.61,1.07c-3,1.54-6,2.09-9.22.63a5.25,5.25,0,0,1-2.52-2.44,10.68,10.68,0,0,1,.4-11.09A7.33,7.33,0,0,1,31.5,17.9c1,.08,1-.25,1-1,0-1.21,0-2.43,0-3.65,0-.82.28-1,1.05-1,2.61,0,2.61,0,2.61,2.61v8.44Zm-3.71,3.51c0-1.48,0-3,0-4.44,0-.83-.43-1.08-1.05-1.16A4,4,0,0,0,27,23.68a7.57,7.57,0,0,0-.37,5.45c.88,2.9,2.54,3.37,5,3.11.64-.07.92-.32.9-1C32.48,29.75,32.51,28.27,32.51,26.79Z"/><path class="cls-1" d="M18.94,23.86c0,3.46,0,6.91,0,10.37,0,.94-.3,1.14-1.17,1.13-2.54,0-2.54,0-2.54-2.48,0-6.42,0-12.83,0-19.25,0-1,.18-1.33,1.23-1.3,2.47.07,2.47,0,2.47,2.53Q18.94,19.36,18.94,23.86Z"/></g></g></svg>