<svg xmlns="http://www.w3.org/2000/svg" viewBox="0 0 39.17 51.94"><defs><style>.cls-1{fill:#ccc;}</style></defs><title>Asset 7</title><g id="Layer_2" data-name="Layer 2"><g id="Layer_1-2" data-name="Layer 1"><path class="cls-1" d="M33.84,40.32a.17.17,0,0,0,0,0l0,.07a2,2,0,0,1-.34,1.94,3.87,3.87,0,0,1-1,.9,11.36,11.36,0,0,1-3.08,1.22,29.55,29.55,0,0,1-5.06.86c-1.22.11-2.44.21-3.67.26s-2.31,0-3.47,0c-1.6,0-3.19-.11-4.79-.27a34.12,34.12,0,0,1-3.94-.6,10.51,10.51,0,0,1-2.74-.9,3.71,3.71,0,0,1-.9-.67A.78.78,0,0,1,4.9,42a3.09,3.09,0,0,1,.74-.47A5.82,5.82,0,0,1,8.34,41c.2,0,.39,0,.59.06-.53-.35-1.08-.67-1.62-1a.42.42,0,0,0-.15,0A10.94,10.94,0,0,0,4.6,40a7.64,7.64,0,0,0-2.83.76A3.61,3.61,0,0,0,.23,42.07,1.5,1.5,0,0,0,0,43a2.51,2.51,0,0,0,.77,1.52,6.49,6.49,0,0,0,2.08,1.34,23.71,23.71,0,0,0,6.23,1.6c1,.14,2,.24,3,.32s2.2.17,3.3.18c1.66,0,3.32,0,5-.07.83,0,1.67-.08,2.5-.17q1.79-.19,3.57-.46a27.5,27.5,0,0,0,4.47-1,11.91,11.91,0,0,0,3.2-1.49,3.9,3.9,0,0,0,1.3-1.39,1.79,1.79,0,0,0-.25-2.19A4.57,4.57,0,0,0,33.84,40.32ZM22.87,0c.07.43.18.9.21,1.37a5.08,5.08,0,0,1-.84,3,13.05,13.05,0,0,1-2.64,3c-1.27,1.12-2.58,2.2-3.86,3.3a21,21,0,0,0-3,3A5.1,5.1,0,0,0,12,19.18a12.62,12.62,0,0,0,1.86,3A26.23,26.23,0,0,0,18,26.1l1,.79a.17.17,0,0,0,0-.12A42.26,42.26,0,0,1,15.6,20a3.29,3.29,0,0,1,0-2.53A8.07,8.07,0,0,1,17.19,15c1-1.14,2.1-2.25,3.15-3.38A19.76,19.76,0,0,0,23,8.27a7.51,7.51,0,0,0,1.16-5A8.49,8.49,0,0,0,22.87,0ZM13.4,26a36.54,36.54,0,0,0-5.6.42,11.5,11.5,0,0,0-2.86.78,3.09,3.09,0,0,0-1.06.72,1.32,1.32,0,0,0-.37.8,1.29,1.29,0,0,0,.63,1.17,5.31,5.31,0,0,0,1.74.78,17.17,17.17,0,0,0,3.38.59c1,.08,2,.16,3,.19,1.74,0,3.49,0,5.23-.1.77-.06,1.55-.09,2.32-.17,1.06-.11,2.13-.23,3.18-.38s2.1-.34,3.14-.52a.6.6,0,0,0,.25-.11l2.28-1.7c.25-.19.48-.4.75-.62h-.13c-1.39.2-2.78.42-4.18.58-1.2.14-2.4.23-3.61.3s-2.4.14-3.6.15a55.19,55.19,0,0,1-7.16-.19,8.59,8.59,0,0,1-1.37-.28c-.38-.11-.43-.36-.15-.64a2.14,2.14,0,0,1,.61-.46c.62-.28,1.25-.55,1.89-.79S12.84,26.17,13.4,26Zm7.24,2a6.81,6.81,0,0,0,4.14-2.81,4.06,4.06,0,0,0,.51-3.38,10.17,10.17,0,0,0-.86-2c-.34-.65-.7-1.3-1-2a2.81,2.81,0,0,1,.46-3.19c.43-.49.85-1,1.32-1.42a40.13,40.13,0,0,1,5.55-4.21l.17-.12A7.64,7.64,0,0,0,30,9a19.47,19.47,0,0,0-5.49,1.58A10.13,10.13,0,0,0,21.18,13a6.67,6.67,0,0,0-1.74,4,4.82,4.82,0,0,0,.61,2.79c.38.68.83,1.33,1.24,2,.27.44.55.87.78,1.33a3.06,3.06,0,0,1,.36,1.72,4.31,4.31,0,0,1-1,2.23C21.22,27.39,20.94,27.68,20.64,28Zm7.05,7-.16-.12c-.75-.48-1.51-.94-2.24-1.44a1,1,0,0,0-1.17-.17h0a28.14,28.14,0,0,1-7.07.94,19.73,19.73,0,0,1-4.5-.36A4.19,4.19,0,0,1,11,33.35a.74.74,0,0,1-.17-1.24l.25-.27h-.24a5.66,5.66,0,0,0-2.45.93,2.74,2.74,0,0,0-.94,1,.92.92,0,0,0,.16,1.18,2.75,2.75,0,0,0,.4.34A5.82,5.82,0,0,0,9.59,36a21.4,21.4,0,0,0,5.75.93,32.62,32.62,0,0,0,5.86-.26,28.33,28.33,0,0,0,4.73-1C26.51,35.46,27.08,35.24,27.7,35ZM12.54,37.28a3.5,3.5,0,0,0-1.3.2A3.19,3.19,0,0,0,9.32,39a1.21,1.21,0,0,0,.25,1.57,3.53,3.53,0,0,0,1.22.72,12.76,12.76,0,0,0,4,.77c1.15.06,2.31,0,3.46,0a23.1,23.1,0,0,0,4.32-.56A14.42,14.42,0,0,0,26.62,40l.24-.15-.09-.08-3-2a.33.33,0,0,0-.26,0,17.21,17.21,0,0,1-4.31,1c-.67.08-1.34.12-2,.17a12.67,12.67,0,0,1-3.68-.22,3.92,3.92,0,0,1-1-.42.52.52,0,0,1-.24-.65A3.42,3.42,0,0,1,12.54,37.28ZM6.6,49.05c.52.19,1.05.41,1.59.6a38.56,38.56,0,0,0,8.61,2c1.26.14,2.53.26,3.8.3a41,41,0,0,0,5.27-.13,37.69,37.69,0,0,0,4-.56A22.5,22.5,0,0,0,35,49.57a9.43,9.43,0,0,0,3-2.06A3.9,3.9,0,0,0,39.17,45c-.27.23-.51.45-.77.66a17.7,17.7,0,0,1-5.19,2.82,36.79,36.79,0,0,1-10.27,2c-.92.06-1.85.09-2.78.08-1.26,0-2.52,0-3.78-.09-1,0-2-.15-2.94-.26s-1.85-.21-2.77-.37C9.31,49.58,7.95,49.3,6.6,49.05ZM29.28,37.13a.92.92,0,0,0,.17,0c.4-.09.8-.16,1.2-.27A11,11,0,0,0,35,34.74a5.86,5.86,0,0,0,2.1-6,3.26,3.26,0,0,0-2.22-2.57,4.43,4.43,0,0,0-3.28.2c-.45.19-.86.44-1.29.67l0,.06h.09a3.65,3.65,0,0,1,2.46.39,2.65,2.65,0,0,1,1.5,2.79,6.13,6.13,0,0,1-.87,2.39,14.6,14.6,0,0,1-3.29,3.68C29.92,36.63,29.6,36.87,29.28,37.13Z"/><path class="cls-1" d="M33.84,40.32a4.57,4.57,0,0,1,1.27.86,1.79,1.79,0,0,1,.25,2.19,3.9,3.9,0,0,1-1.3,1.39,11.91,11.91,0,0,1-3.2,1.49,27.5,27.5,0,0,1-4.47,1q-1.78.27-3.57.46c-.83.09-1.66.14-2.5.17-1.66,0-3.32.08-5,.07-1.1,0-2.2-.09-3.3-.18s-2-.18-3-.32a23.71,23.71,0,0,1-6.23-1.6A6.49,6.49,0,0,1,.78,44.54,2.51,2.51,0,0,1,0,43a1.5,1.5,0,0,1,.22-1,3.61,3.61,0,0,1,1.54-1.32A7.64,7.64,0,0,1,4.6,40a10.94,10.94,0,0,1,2.56.08.42.42,0,0,1,.15,0c.55.32,1.09.64,1.62,1-.2,0-.39-.05-.59-.06a5.82,5.82,0,0,0-2.71.47A3.09,3.09,0,0,0,4.9,42a.78.78,0,0,0-.07,1.22,3.71,3.71,0,0,0,.9.67,10.51,10.51,0,0,0,2.74.9,34.12,34.12,0,0,0,3.94.6c1.59.16,3.19.27,4.79.27,1.16,0,2.31,0,3.47,0s2.45-.15,3.67-.26a29.55,29.55,0,0,0,5.06-.86,11.36,11.36,0,0,0,3.08-1.22,3.87,3.87,0,0,0,1-.9,2,2,0,0,0,.34-1.94l0-.07A.17.17,0,0,1,33.84,40.32Z"/><path class="cls-1" d="M22.87,0a8.49,8.49,0,0,1,1.25,3.27,7.51,7.51,0,0,1-1.16,5,19.76,19.76,0,0,1-2.62,3.36c-1.05,1.13-2.12,2.24-3.15,3.38a8.07,8.07,0,0,0-1.6,2.45,3.29,3.29,0,0,0,0,2.53A42.26,42.26,0,0,0,19,26.77a.17.17,0,0,1,0,.12l-1-.79a26.23,26.23,0,0,1-4.08-3.94,12.62,12.62,0,0,1-1.86-3,5.1,5.1,0,0,1,.72-5.49,21,21,0,0,1,3-3C17,9.57,18.34,8.5,19.6,7.38a13.05,13.05,0,0,0,2.64-3,5.08,5.08,0,0,0,.84-3C23,.9,22.94.43,22.87,0Z"/><path class="cls-1" d="M13.4,26c-.56.17-1.14.31-1.69.51s-1.27.5-1.89.79a2.14,2.14,0,0,0-.61.46c-.28.29-.23.53.15.64a8.59,8.59,0,0,0,1.37.28,55.19,55.19,0,0,0,7.16.19c1.2,0,2.4-.08,3.6-.15s2.41-.16,3.61-.3c1.4-.16,2.79-.39,4.18-.58h.13c-.27.23-.5.43-.75.62l-2.28,1.7a.6.6,0,0,1-.25.11c-1,.18-2.09.37-3.14.52s-2.12.28-3.18.38c-.77.08-1.55.11-2.32.17-1.74.13-3.49.15-5.23.1-1,0-2-.11-3-.19a17.17,17.17,0,0,1-3.38-.59,5.31,5.31,0,0,1-1.74-.78,1.29,1.29,0,0,1-.63-1.17,1.32,1.32,0,0,1,.37-.8,3.09,3.09,0,0,1,1.06-.72,11.5,11.5,0,0,1,2.86-.78A36.54,36.54,0,0,1,13.4,26Z"/><path class="cls-1" d="M20.64,28c.29-.33.58-.63.83-1a4.31,4.31,0,0,0,1-2.23,3.06,3.06,0,0,0-.36-1.72c-.24-.46-.51-.89-.78-1.33-.41-.67-.86-1.31-1.24-2A4.82,4.82,0,0,1,19.44,17a6.67,6.67,0,0,1,1.74-4,10.13,10.13,0,0,1,3.31-2.36A19.47,19.47,0,0,1,30,9a7.64,7.64,0,0,1,1-.09l-.17.12a40.13,40.13,0,0,0-5.55,4.21c-.47.44-.89.93-1.32,1.42a2.81,2.81,0,0,0-.46,3.19c.29.67.65,1.32,1,2a10.17,10.17,0,0,1,.86,2,4.06,4.06,0,0,1-.51,3.38A6.81,6.81,0,0,1,20.64,28Z"/><path class="cls-1" d="M27.7,35c-.61.21-1.19.43-1.77.61a28.33,28.33,0,0,1-4.73,1,32.62,32.62,0,0,1-5.86.26A21.4,21.4,0,0,1,9.59,36,5.82,5.82,0,0,1,8,35.27a2.75,2.75,0,0,1-.4-.34.92.92,0,0,1-.16-1.18,2.74,2.74,0,0,1,.94-1,5.66,5.66,0,0,1,2.45-.93h.24l-.25.27A.74.74,0,0,0,11,33.35a4.19,4.19,0,0,0,1.49.56,19.73,19.73,0,0,0,4.5.36,28.14,28.14,0,0,0,7.07-.94h0a1,1,0,0,1,1.17.17c.73.5,1.49,1,2.24,1.44Z"/><path class="cls-1" d="M12.54,37.28a3.42,3.42,0,0,0-.21.44.52.52,0,0,0,.24.65,3.92,3.92,0,0,0,1,.42,12.67,12.67,0,0,0,3.68.22c.67,0,1.34-.09,2-.17a17.21,17.21,0,0,0,4.31-1,.33.33,0,0,1,.26,0l3,2,.09.08-.24.15a14.42,14.42,0,0,1-4.06,1.44,23.1,23.1,0,0,1-4.32.56c-1.15,0-2.31,0-3.46,0a12.76,12.76,0,0,1-4-.77,3.53,3.53,0,0,1-1.22-.72A1.21,1.21,0,0,1,9.32,39a3.19,3.19,0,0,1,1.92-1.49A3.5,3.5,0,0,1,12.54,37.28Z"/><path class="cls-1" d="M6.6,49.05c1.35.25,2.7.53,4.07.76.92.16,1.84.27,2.77.37s2,.21,2.94.26c1.26.06,2.52.08,3.78.09.93,0,1.86,0,2.78-.08a36.79,36.79,0,0,0,10.27-2,17.7,17.7,0,0,0,5.19-2.82c.26-.21.5-.43.77-.66A3.9,3.9,0,0,1,38,47.52a9.43,9.43,0,0,1-3,2.06,22.5,22.5,0,0,1-5.21,1.64,37.69,37.69,0,0,1-4,.56,41,41,0,0,1-5.27.13c-1.27,0-2.54-.16-3.8-.3a38.56,38.56,0,0,1-8.61-2C7.65,49.46,7.12,49.25,6.6,49.05Z"/><path class="cls-1" d="M29.28,37.13c.33-.26.64-.5.95-.75a14.6,14.6,0,0,0,3.29-3.68,6.13,6.13,0,0,0,.87-2.39,2.65,2.65,0,0,0-1.5-2.79,3.65,3.65,0,0,0-2.46-.39h-.09l0-.06c.43-.22.85-.48,1.29-.67a4.43,4.43,0,0,1,3.28-.2,3.26,3.26,0,0,1,2.22,2.57,5.86,5.86,0,0,1-2.1,6,11,11,0,0,1-4.34,2.12c-.4.11-.8.18-1.2.27A.92.92,0,0,1,29.28,37.13Z"/></g></g></svg>