<svg xmlns="http://www.w3.org/2000/svg" viewBox="0 0 45.73 51.85"><defs><style>.cls-1{fill:#ccc;}</style></defs><title>Asset 2</title><g id="Layer_2" data-name="Layer 2"><g id="Layer_1-2" data-name="Layer 1"><path class="cls-1" d="M22.67,51.85c-1.37-.4-2.74-.81-4.12-1.2L4.61,46.79a.57.57,0,0,1-.51-.6c-.34-4-.71-8-1.07-12s-.7-8-1.05-12S1.26,14.29.91,10.33C.6,6.9.31,3.47,0,0H45.73c-.1,1.2-.2,2.38-.31,3.57q-.43,4.84-.87,9.68l-1,10.84-.86,9.58-.87,9.73c-.08.91-.18,1.81-.23,2.72a.59.59,0,0,1-.51.65q-8.78,2.41-17.55,4.86a4.67,4.67,0,0,0-.5.2ZM4.25,3.82c.17,2,.34,3.91.51,5.85q.48,5.37,1,10.74t1,10.79c.36,4,.72,8,1.07,12a.58.58,0,0,0,.49.62l14.33,3.94a1.16,1.16,0,0,0,.58,0l14.48-4a.47.47,0,0,0,.41-.48c.17-2,.35-4,.52-6q.42-4.79.85-9.58.49-5.45,1-10.89.43-4.84.87-9.68c.1-1.1.19-2.2.29-3.33Z"/><path class="cls-1" d="M8.51,9.53l1.55,17.31H29.88c0,.27,0,.49,0,.7-.19,2.08-.39,4.17-.56,6.25a.57.57,0,0,1-.5.61c-1.88.48-3.75,1-5.63,1.48a1.32,1.32,0,0,1-.64,0c-1.89-.5-3.77-1-5.67-1.52a.49.49,0,0,1-.43-.51c0-.57-.09-1.14-.14-1.72-.07-.82-.15-1.63-.23-2.44H10.31c0,.37.06.71.09,1,.23,2.52.46,5,.67,7.56a.46.46,0,0,0,.4.47l11.06,3.07a1.16,1.16,0,0,0,.59,0l11.11-3.08a.45.45,0,0,0,.39-.48c.05-.89.14-1.78.22-2.67q.59-6.5,1.18-13c0-.49.07-1,.12-1.54H15.29l-.52-5.82H36.68l.51-5.73Z"/><path class="cls-1" d="M8.51,9.53H37.19l-.51,5.73H14.77l.52,5.82H36.15c0,.55-.07,1-.12,1.54q-.59,6.51-1.18,13c-.08.89-.17,1.78-.22,2.67a.45.45,0,0,1-.39.48L23.13,41.86a1.16,1.16,0,0,1-.59,0L11.48,38.78a.46.46,0,0,1-.4-.47c-.21-2.52-.45-5-.67-7.56,0-.33-.06-.67-.09-1H16c.08.81.15,1.63.23,2.44.05.57.11,1.14.14,1.72a.49.49,0,0,0,.43.51c1.89.49,3.78,1,5.67,1.52a1.32,1.32,0,0,0,.64,0c1.88-.49,3.75-1,5.63-1.48a.57.57,0,0,0,.5-.61c.17-2.09.37-4.17.56-6.25,0-.22,0-.44,0-.7H10.05Z"/></g></g></svg>