<svg xmlns="http://www.w3.org/2000/svg" viewBox="0 0 45.73 51.85"><defs><style>.cls-1{fill:#ccc;}</style></defs><title>Asset 4</title><g id="Layer_2" data-name="Layer 2"><g id="Layer_1-2" data-name="Layer 1"><path class="cls-1" d="M22.67,51.85c-1.37-.4-2.74-.81-4.12-1.2L4.61,46.79a.57.57,0,0,1-.51-.6c-.34-4-.71-8-1.07-12s-.7-8-1.05-12S1.26,14.29.91,10.33C.6,6.9.31,3.47,0,0H45.73c-.1,1.2-.2,2.38-.31,3.57q-.43,4.84-.87,9.68l-1,10.84-.86,9.58-.87,9.73c-.08.91-.18,1.81-.23,2.72a.59.59,0,0,1-.51.65q-8.78,2.41-17.55,4.86a4.67,4.67,0,0,0-.5.2ZM4.25,3.82c.17,2,.34,3.91.51,5.85q.48,5.37,1,10.74t1,10.79c.36,4,.72,8,1.07,12a.58.58,0,0,0,.49.62l14.33,3.94a1.16,1.16,0,0,0,.58,0l14.48-4a.47.47,0,0,0,.41-.48c.17-2,.35-4,.52-6q.42-4.79.85-9.58.49-5.45,1-10.89.43-4.84.87-9.68c.1-1.1.19-2.2.29-3.33Z"/><path class="cls-1" d="M21.55,41.68l-8.89-2.46c-1.77-.49-1.75-.5-1.9-2.35q-.26-3.23-.59-6.45c-.06-.6.11-.76.69-.63.81.18,1.63.32,2.44.44a.6.6,0,0,1,.59.63c0,.73.13,1.45.16,2.18a.6.6,0,0,0,.54.67c.78.18,1.55.41,2.32.66.47.16.56,0,.55-.44-.09-2.59-.16-5.17-.24-7.76-.06-1.66-.14-3.31-.2-5-.12-3.69-.22-7.38-.37-11.07,0-.6.15-.77.74-.75,1.15,0,2.31,0,3.47,0,.52,0,.76.12.67.66a1.39,1.39,0,0,0,0,.23q0,13.91,0,27.82C21.55,39.26,21.55,40.43,21.55,41.68Z"/><path class="cls-1" d="M23.79,18.07c0-2.66,0-5.33,0-8,0-.58.17-.71.72-.7q6,0,12,0c.55,0,.73.08.65.7-.19,1.37-.29,2.75-.37,4.13,0,.52-.21.67-.71.68-2.11,0-4.22.1-6.33.12-.56,0-.8.14-.8.75,0,1.48-.08,3-.18,4.44,0,.64.08.87.79.85,2-.06,4,0,6,0,.53,0,.68.13.63.67q-.77,8.21-1.48,16.44a.73.73,0,0,1-.62.77q-4.8,1.3-9.58,2.65c-.47.13-.67.14-.66-.45,0-1.61,0-3.22,0-4.83,0-.45.16-.61.57-.71,1.85-.45,3.69-1,5.55-1.38.51-.12.62-.35.66-.81q.24-3.23.55-6.46c0-.48,0-.59-.54-.55-2,.16-3.91.23-5.87.39-.71.06-.95-.09-.93-.85C23.82,23.3,23.79,20.68,23.79,18.07Z"/></g></g></svg>