<svg xmlns="http://www.w3.org/2000/svg" viewBox="0 0 53.03 51.91"><defs><style>.cls-1{fill:#ccc;}</style></defs><title>Asset 13</title><g id="Layer_2" data-name="Layer 2"><g id="Layer_1-2" data-name="Layer 1"><path class="cls-1" d="M10.74,9.12l2,3.08a1.64,1.64,0,0,0,.62-1.85C12.67,9,11.94,8.69,10.74,9.12Z"/><path class="cls-1" d="M0,2.63c.09-.27.17-.55.28-.81A2.87,2.87,0,0,1,3.4,0,12.3,12.3,0,0,1,9.67,2.74a3.39,3.39,0,0,0,2.15.85A14.38,14.38,0,0,1,19,5.69,36,36,0,0,1,32,18.57c.79,1.37,1.31,2.9,2,4.35,1.2,2.59,2.44,5.16,3.64,7.74a3.34,3.34,0,0,0,2,1.81A28.73,28.73,0,0,1,48.52,38a34.62,34.62,0,0,1,2.58,2.74c.23.25.17.43-.17.5l-3.28.7-4.29.87a4.71,4.71,0,0,0,.68.94,14.27,14.27,0,0,0,2,1.45,16.87,16.87,0,0,1,5.23,4.48c.19.24.45.42.64.66.38.48.73,1,1.09,1.47l-.14.13a2.13,2.13,0,0,1-.31-.2A19.37,19.37,0,0,0,47,48.11a17.77,17.77,0,0,1-4.32-2.77,7.52,7.52,0,0,1-2.18-3.09c-.15-.38.13-.56.39-.64a33.32,33.32,0,0,1,3.76-1.06,30.92,30.92,0,0,1,3.6-.26c.18,0,.37,0,.69,0a3.43,3.43,0,0,0-.41-.6,10.14,10.14,0,0,0-1-.75c-.81-.56-1.66-1.07-2.44-1.67a16.62,16.62,0,0,0-6.2-3,4.68,4.68,0,0,1-3.36-2.76c-1.48-3.26-3-6.5-4.45-9.78a29,29,0,0,0-4.34-6.93A29.61,29.61,0,0,0,15.24,6.13a8.74,8.74,0,0,0-3-.64A21.64,21.64,0,0,1,10,5.33,1.86,1.86,0,0,1,9,4.87,14.62,14.62,0,0,0,3.93,2.08a3.09,3.09,0,0,0-1.53-.14,1,1,0,0,0-.73,1.34A9,9,0,0,0,2.56,5,14.55,14.55,0,0,0,3.77,6.62a19.27,19.27,0,0,1,3.38,7,23.06,23.06,0,0,0,1.47,3.51,7.2,7.2,0,0,0,1.32,1.72A2,2,0,0,1,10.53,21c-.36,1.13-.83,2.24-1.08,3.39A14.85,14.85,0,0,0,10.3,34a3,3,0,0,0,1.28,1.6c.44.23.56.17.63-.32.16-1.09.25-2.2.45-3.28a6.83,6.83,0,0,1,2.27-4.17C17,33.06,19.53,38,23.64,42c-.34-.25-.64-.44-.9-.67-1-.87-2-1.74-3-2.64-.69-.63-1.33-1.32-2-2a14.52,14.52,0,0,1-2.36-3.91c-.12-.24-.25-.47-.37-.7H14.9c-.14.8-.28,1.61-.42,2.41a13.67,13.67,0,0,1-.32,1.7,2,2,0,0,1-2.91,1.18,4.79,4.79,0,0,1-1.31-1.11,11.17,11.17,0,0,1-2.27-5.75,18.18,18.18,0,0,1,.76-8.05c.18-.58.39-1.16.52-1.75A.92.92,0,0,0,8.79,20a14.71,14.71,0,0,1-3-5.44C5.32,13.37,5,12.1,4.52,10.88a7.75,7.75,0,0,0-.89-1.71C3,8.23,2.28,7.34,1.58,6.44A8.15,8.15,0,0,1,0,3.34Z"/><path class="cls-1" d="M10.74,9.12c1.2-.43,1.93-.09,2.6,1.23a1.64,1.64,0,0,1-.62,1.85Z"/></g></g></svg>