<svg xmlns="http://www.w3.org/2000/svg" viewBox="0 0 49.45 51.85"><defs><style>.cls-1{fill:#ccc;}</style></defs><title>Asset 11</title><g id="Layer_2" data-name="Layer 2"><g id="Layer_1-2" data-name="Layer 1"><path class="cls-1" d="M49.45,8.7c-.81,6.51-1.56,12.54-2.31,18.57-.5,4-1,8-1.57,11.94a3.17,3.17,0,0,1-1.31,2Q35,46.54,25.52,51.6a2.79,2.79,0,0,1-2.27,0q-9.36-5-18.6-10.27A2.53,2.53,0,0,1,3.5,39.72C2.31,29.86,1.22,20,0,10.15c-.16-1.34.14-2,1.47-2.41C8.63,5.29,15.7,2.7,22.82.25a5.1,5.1,0,0,1,3,0C33.27,2.63,40.65,5.15,48,7.69A5.57,5.57,0,0,1,49.45,8.7Zm-7.21,31L24.32,1.38,7.12,39.65c1.95,0,3.6,0,5.24,0a1.7,1.7,0,0,0,1.84-1.31c.77-2.09,1.58-4.17,2.52-6.18a2.13,2.13,0,0,1,1.54-1c4.29-.1,8.58-.12,12.87,0a2.34,2.34,0,0,1,1.68,1.13c1,2.09,1.83,4.29,2.83,6.4A2.08,2.08,0,0,0,37,39.68C38.64,39.82,40.26,39.73,42.24,39.73Z"/><path class="cls-1" d="M30,25.64H19.51l4.7-11.14.45,0Z"/></g></g></svg>