<svg xmlns="http://www.w3.org/2000/svg" viewBox="0 0 51.17 51.17"><defs><style>.cls-1{fill:#ccc;}</style></defs><title>Asset 15</title><g id="Layer_2" data-name="Layer 2"><g id="Layer_1-2" data-name="Layer 1"><path class="cls-1" d="M0,25.58Q0,13.17,0,.75C0,.12.18,0,.77,0Q25.6,0,50.44,0c.57,0,.73.11.73.71q0,24.87,0,49.74c0,.6-.17.71-.73.71q-24.84,0-49.67,0C.18,51.17,0,51,0,50.42Q0,38,0,25.58ZM25.61,3.08q-10.92,0-21.83,0c-.52,0-.71.08-.71.67q0,21.83,0,43.67c0,.55.12.7.68.7q21.83,0,43.67,0c.57,0,.68-.17.68-.71q0-21.8,0-43.6c0-.59-.14-.73-.72-.73C40.12,3.08,32.86,3.08,25.61,3.08Z"/><path class="cls-1" d="M13.07,24q0-5,0-9.92c0-1.17.38-1.54,1.56-1.54a24.64,24.64,0,0,1,6.94.54,12.17,12.17,0,0,1,2.34.93c3,1.6,3.68,4.79,2.76,8-.87,3-3.2,4.49-6.13,5.15a15.52,15.52,0,0,1-2.3.31c-1.05.08-1.41.48-1.42,1.53,0,1.69,0,3.37,0,5.06,0,1-.41,1.36-1.38,1.37-2.25,0-2.36-.08-2.36-2.34Q13.07,28.55,13.07,24Zm3.56-4c0,1.08,0,2.17,0,3.25,0,.48.2.77.71.76a7,7,0,0,0,4-1.14,3.72,3.72,0,0,0,1.58-3.71,3.31,3.31,0,0,0-2.38-2.69,9.6,9.6,0,0,0-3.06-.54c-.53,0-.82.24-.81.8C16.64,17.79,16.64,18.88,16.64,20Z"/><path class="cls-1" d="M32.94,35.69a8.79,8.79,0,0,1-3.08-.39c-1-.34-1.31-.73-1.29-1.8,0-.47,0-.93,0-1.4,0-.9.18-1,1-.58a6.93,6.93,0,0,0,4.5.76,1.32,1.32,0,0,0,1.22-1,1.46,1.46,0,0,0-.56-1.65c-1.07-.79-2.28-1.37-3.41-2.06a5.06,5.06,0,0,1-2.58-3.53,5,5,0,0,1,3.88-5.66,11.5,11.5,0,0,1,4.76.11c.82.2,1,.44,1,1.28,0,.62,0,1.24,0,1.86s-.24.82-.83.53a7.47,7.47,0,0,0-3.76-.62,1.31,1.31,0,0,0-1.32.83,1.41,1.41,0,0,0,.4,1.69,11.57,11.57,0,0,0,2.39,1.43,8.83,8.83,0,0,1,2.66,2,4.69,4.69,0,0,1,.92,4.85,4.91,4.91,0,0,1-3.83,3.23A8.68,8.68,0,0,1,32.94,35.69Z"/></g></g></svg>