<svg xmlns="http://www.w3.org/2000/svg" viewBox="0 0 51.21 51.2"><defs><style>.cls-1{fill:#ccc;}</style></defs><title>Asset 16</title><g id="Layer_2" data-name="Layer 2"><g id="Layer_1-2" data-name="Layer 1"><path class="cls-1" d="M51.19,25.66q0,12.43,0,24.86c0,.55-.15.69-.69.68q-24.92,0-49.83,0c-.55,0-.69-.15-.69-.69Q0,25.6,0,.68C0,.14.15,0,.69,0Q25.61,0,50.52,0c.55,0,.69.15.69.69Q51.18,13.17,51.19,25.66ZM25.49,48.23H47.65c.79,0,.7.09.7-.7q0-22,0-44.1c0-.13,0-.26,0-.38s-.07-.3-.28-.29c-.6,0-1.2-.08-1.79-.08H3.17c-.46,0-.57.14-.57.59q0,22.18,0,44.37c0,.51.15.63.64.63Q14.36,48.22,25.49,48.23Z"/><path class="cls-1" d="M25,35.7c-.45,0-.91,0-1.36,0s-.7-.18-.81-.64c-.24-1-.53-2-.81-3.06s-.49-1.76-.69-2.65c-.09-.39-.27-.5-.66-.49q-2.91,0-5.83,0c-.39,0-.56.11-.65.5-.47,1.92-1,3.83-1.47,5.76-.1.42-.27.6-.72.59-.85,0-1.7,0-2.55,0-.53,0-.67-.17-.54-.69s.28-.94.43-1.41c.91-2.87,1.64-5.79,2.47-8.69.48-1.67.93-3.35,1.39-5,.32-1.15.71-2.29,1-3.46.32-1.55,1.09-3,1-4.64,0-.28.18-.33.42-.33,1.38,0,2.75,0,4.13,0,.39,0,.46.25.54.52l3.41,11.9L26.87,35c.19.65.18.67-.5.67ZM17.71,15.28s-.08,0-.08.07c-.65,3.22-1.53,6.38-2.36,9.55-.09.33,0,.39.32.38q2.15,0,4.3,0c.31,0,.4-.07.31-.39-.14-.47-.25-.95-.37-1.42Z"/><path class="cls-1" d="M36.66,27.61c-1.65,0-3,0-4.3,0-.41,0-.56.08-.53.53.22,2.81,1.86,4.38,4.68,4.37a7.81,7.81,0,0,0,3.14-.57c.53-.23.6-.17.6.43s0,1.36,0,2a.89.89,0,0,1-.7,1,11.38,11.38,0,0,1-5.13.54,6.56,6.56,0,0,1-5.67-4.32,13.35,13.35,0,0,1-.63-7.26,8.54,8.54,0,0,1,2-4.53,6.57,6.57,0,0,1,8.59-1.31,6.22,6.22,0,0,1,2.51,3.9,12.19,12.19,0,0,1,.2,4.37.68.68,0,0,1-.76.7C39.2,27.57,37.76,27.63,36.66,27.61ZM34.78,24.5H36.3c1.65,0,1.81-.23,1.24-1.85l-.08-.21a2.5,2.5,0,0,0-2.14-1.69,2.64,2.64,0,0,0-2.55,1.13,5.2,5.2,0,0,0-.84,2.19c-.06.32,0,.44.36.43C33.12,24.49,34,24.5,34.78,24.5Z"/></g></g></svg>