<svg xmlns="http://www.w3.org/2000/svg" viewBox="0 0 45.6 51.83"><defs><style>.cls-1{fill:#ccc;}</style></defs><title>Asset 3</title><g id="Layer_2" data-name="Layer 2"><g id="Layer_1-2" data-name="Layer 1"><path class="cls-1" d="M0,0S0,.54,0,.59c.14,1.61.28,3.43.42,5s.3,3.46.45,5.14c.16,1.84.32,3.73.48,5.57.18,2,.36,4,.53,6,.2,2.31.4,4.64.61,7,.16,1.84.33,3.68.49,5.52.18,2,.34,4,.52,6,.16,1.84.33,3.67.49,5.51a.23.23,0,0,0,.21.25l4,1.13,14.43,4.12a.74.74,0,0,0,.39,0l8.06-2.3,10.37-3a.19.19,0,0,0,.17-.2c0-.32.05-.64.08-1L42,41.8q.16-1.8.31-3.6t.32-3.57L43,31l.31-3.53.32-3.62.32-3.57.31-3.6.32-3.57.32-3.64.32-3.55c.11-1.21.21-2.86.32-4.06,0-.45.08-1.82.12-1.82ZM39.49,22.78c-.1,1.1-.2,2.2-.3,3.31s-.19,2.24-.29,3.37c-.08,1-.17,1.92-.26,2.88l-.25,2.88-.25,2.88-.3,3.35c0,.46-.09.91-.12,1.37,0,.13-.09.14-.17.17l-2.34.67-8.74,2.5L22.7,47.21a.51.51,0,0,1-.26,0L7.58,43a.21.21,0,0,1-.18-.22q-.18-2.1-.36-4.21c-.12-1.42-.26-2.83-.38-4.25s-.27-3.11-.41-4.66S6,26.83,5.88,25.42s-.24-2.82-.37-4.23c-.1-1.12-.2-2.23-.3-3.35S5,15.63,4.92,14.52s-.2-2.23-.3-3.35L4.33,7.89C4.25,6.92,4.16,5,4.07,5h37S41,6,40.93,6.47c-.11,1.28-.23,2.55-.34,3.83-.1,1.12-.2,2.22-.3,3.33L40,17l-.25,2.85Q39.62,21.3,39.49,22.78Z"/><path class="cls-1" d="M11.52,30.91h5.79c0,.13,0,.27,0,.4,0,1,.08,2,.11,3a.27.27,0,0,0,.21.29l5.58,1.89a.62.62,0,0,0,.37,0l5.58-1.89a.27.27,0,0,0,.22-.28c.11-1.75.23-3.5.35-5.25,0-.35,0-.7.06-1.08H17l-.3-5.83H30.13l.43-5.81H10.49l-.44-5.8H36.67c0,.5-.05,1-.09,1.48q-.13,2.06-.26,4.11t-.25,4q-.13,2-.25,4.09l-.2,3.29-.26,4.25-.25,4c-.06,1-.12,1.92-.17,2.88a.3.3,0,0,1-.24.32L23.62,42.62a.63.63,0,0,1-.37,0L12.14,39a.25.25,0,0,1-.2-.27q-.15-2.84-.31-5.67-.05-.94-.1-1.87C11.52,31.07,11.52,31,11.52,30.91Z"/></g></g></svg>