<svg xmlns="http://www.w3.org/2000/svg" viewBox="0 0 51.66 51.89"><defs><style>.cls-1{fill:#ccc;}</style></defs><title>Asset 5</title><g id="Layer_2" data-name="Layer 2"><g id="Layer_1-2" data-name="Layer 1"><path class="cls-1" d="M36.79,25.86a7.62,7.62,0,0,1-3.23.69l-7.71,0h-5a8.69,8.69,0,0,0-3.74.8A5.83,5.83,0,0,0,14.36,30a6.8,6.8,0,0,0-.77,3.2c0,2.56,0,5.12,0,7.69,0,1.43,0,2.87,0,4.3A4.49,4.49,0,0,0,14,47.21a6.19,6.19,0,0,0,2.5,2.64,12.25,12.25,0,0,0,3.59,1.4,24.57,24.57,0,0,0,4.55.6c1,0,2.08,0,3.12,0a32.07,32.07,0,0,0,3.32-.27,18.36,18.36,0,0,0,3.14-.69,9.14,9.14,0,0,0,3-1.51,4.6,4.6,0,0,0,1.52-2,3.81,3.81,0,0,0,.2-1.36c0-1.92,0-3.83,0-5.75,0-.13,0-.16-.16-.16H26.34c-.13,0-.16,0-.15-.16,0-.49,0-1.12,0-1.61,0-.18,0-.3.17-.3h17.4A8.13,8.13,0,0,0,46.29,38a8.41,8.41,0,0,0,3.9-3c1.06-1.5.95-3.09,1.28-4.87.06-.31,0,.31,0,0,0-2.36.13-5.69.13-8,0,0,0,0,0,0a17.63,17.63,0,0,0,0-1.8,12.86,12.86,0,0,0-1.16-3.63,7.32,7.32,0,0,0-2.62-2.89,5.3,5.3,0,0,0-2.74-.83c-1.46,0-2.91,0-4.37,0-.12,0-.14,0-.14.15q0,3,0,6.05c0,.22,0,.44,0,.65a8.88,8.88,0,0,1-.71,2.91A6.14,6.14,0,0,1,36.79,25.86ZM33.44,43.29a2.29,2.29,0,1,1-2.28,2.29A2.29,2.29,0,0,1,33.44,43.29Z"/><path class="cls-1" d="M.55,31.34A13,13,0,0,0,2,35.15,7.37,7.37,0,0,0,4.76,38a5.32,5.32,0,0,0,2.55.72c1.49,0,3,0,4.46,0,.12,0,.12-.05.12-.14q0-3,0-6.05a8.87,8.87,0,0,1,.64-3.35A6.23,6.23,0,0,1,15.16,26a7.23,7.23,0,0,1,3.71-1c4.27,0,8.53,0,12.8,0A8.72,8.72,0,0,0,35,24.36a6,6,0,0,0,3.11-2.67,7,7,0,0,0,.81-3.4c0-4,0-8,0-12a4.66,4.66,0,0,0-1-2.87,7.21,7.21,0,0,0-2.74-2.16A16.5,16.5,0,0,0,29.68,0a23.22,23.22,0,0,0-2.58,0h0c-.67,0-1.48.12-2.15.12h0a25.92,25.92,0,0,0-2.87,0A20.2,20.2,0,0,0,18.7.67a10.06,10.06,0,0,0-3,1.28A4.92,4.92,0,0,0,13.9,3.86a3.8,3.8,0,0,0-.35,1.77c0,1.89,0,3.76,0,5.65,0,.21,0,.17.18.17H26.14c.12,0,.15,0,.15.15,0,.49,0,.88,0,1.37,0,.21,0,.1-.19.1H8.67c-.05,0-.1.1-.16.09a5.58,5.58,0,0,0-1.43.13,7.11,7.11,0,0,0-4.22,2.38,10,10,0,0,0-2,3.59A19.25,19.25,0,0,0,0,24.44a31.2,31.2,0,0,0,0,3.44A22.6,22.6,0,0,0,.55,31.34ZM19,8.28A2.29,2.29,0,1,1,21.33,6,2.28,2.28,0,0,1,19,8.28Z"/></g></g></svg>