<svg xmlns="http://www.w3.org/2000/svg" viewBox="0 0 45.8 51.85"><defs><style>.cls-1{fill:#ccc;}</style></defs><title>Asset 10</title><g id="Layer_2" data-name="Layer 2"><g id="Layer_1-2" data-name="Layer 1"><path class="cls-1" d="M11.4,28.4c5.22.22,10.46.06,15.69.06,5.5,0,11-.05,16.51,0,1.67,0,2.26-.5,2.2-2.2A34.52,34.52,0,0,0,43.73,14.7C40.85,7.39,36.09,1.82,28,.44c-8.92-1.52-16.77.8-22.55,8.19C.47,15-.59,22.33.27,30.21c1.47,13.36,9.78,21.25,23.2,21.63,9.32.26,16.57-3.93,19.89-11.48C45.63,35.21,45.49,35,39.94,35c-1.39,0-2.95-.47-3.59,1.58-1.85,5.85-6.36,7.85-12,8.09C16,45,9.88,39.94,8.68,31.64,8.36,29.44,8.68,28.28,11.4,28.4ZM8.83,19C10.22,12,15.51,7.4,22.42,7.31A14,14,0,0,1,36.7,18.51c.45,2,.15,2.86-2.14,2.77-3.93-.15-7.87,0-11.81,0s-8.06-.06-12.08,0C8.86,21.3,8.5,20.65,8.83,19Z"/></g></g></svg>