<svg xmlns="http://www.w3.org/2000/svg" viewBox="0 0 30.4 30.38"><defs><style>.cls-1{fill:#ccc;}</style></defs><title>Asset 20</title><g id="Layer_2" data-name="Layer 2"><g id="Layer_1-2" data-name="Layer 1"><path class="cls-1" d="M0,0H30.4c0,.1,0,.2,0,.3q0,14.9,0,29.8v.29H0v-.31Q0,15.19,0,.3C0,.2,0,.1,0,0ZM4.59,14.71h-2c-.18,0-.22.06-.22.23q0,6.62,0,13.25c0,.17,0,.23.22.23H4.43c.26,0,.26,0,.26-.26q0-2.64,0-5.27c0-.07,0-.14,0-.23.13.15.23.28.34.4a3.56,3.56,0,0,0,2.46,1.05,4.16,4.16,0,0,0,3.73-1.69,5.22,5.22,0,0,0,.92-4.13,4.37,4.37,0,0,0-5-3.78,3.44,3.44,0,0,0-2.36,1.33L4.59,16Zm9.26-4.33-.23,7.35.2-.08A7.32,7.32,0,0,1,17.38,17a2.45,2.45,0,0,1,2.37,2.48,2.56,2.56,0,0,1-4.93,1.15l-.1-.22L13,22a4.19,4.19,0,0,0,1.64,1.58,5.43,5.43,0,0,0,4,.37,4.37,4.37,0,0,0,2.83-2.21A4.9,4.9,0,0,0,22.09,19a3.82,3.82,0,0,0-1.55-3,5,5,0,0,0-3.2-.93c-.48,0-1,.07-1.44.11a.1.1,0,0,1,0,0c0-.87.08-1.73.11-2.6,0-.17.07-.21.23-.2h5.27v-2Zm9.94,1.84,1.33.49-.82,1.12.82.62L26,13.34l.87,1.14.84-.61-.82-1.16,1.32-.46L28,11.7c-.14-.44-.14-.44-.59-.3l-.88.26V10.28c-.31,0-.6,0-.88,0s-.23,0-.22.23c0,.38,0,.75,0,1.15l-.21-.06-1-.31c-.11,0-.17,0-.2.1S23.87,11.92,23.78,12.22Z"/><path class="cls-1" d="M4.62,19.09a3,3,0,0,1,1.15-2.26,2.5,2.5,0,0,1,3.77.86,3.37,3.37,0,0,1,0,3.17,2.52,2.52,0,0,1-4.4.09A3.3,3.3,0,0,1,4.62,19.09Z"/></g></g></svg>