<svg xmlns="http://www.w3.org/2000/svg" viewBox="0 0 52.08 50.93"><defs><style>.cls-1{fill:#ccc;}</style></defs><title>Asset 14</title><g id="Layer_2" data-name="Layer 2"><g id="Layer_1-2" data-name="Layer 1"><path class="cls-1" d="M52.06,0q0,25,0,49.91c0,.83-.17,1-1,1q-25.53,0-51.06,0Q0,26.11,0,1.3C0,.26.26,0,1.3,0Q26.68.05,52.06,0ZM26,48.31c7.44,0,14.88,0,22.32,0,1,0,1.17-.28,1.17-1.2q0-21.7,0-43.39c0-.86-.19-1.14-1.1-1.14Q26,2.65,3.73,2.6c-.91,0-1.11.27-1.11,1.14q0,21.7,0,43.39c0,1.06.36,1.2,1.28,1.2C11.25,48.3,18.62,48.31,26,48.31Z"/><path class="cls-1" d="M21.47,11.6c2.46,0,2.47,0,3.16,2.35,2,6.86,4,13.73,6.08,20.58.27.89.07,1.07-.82,1.07-3.06,0-3.06,0-3.86-2.92-.28-1-.57-2.06-.83-3.09a.81.81,0,0,0-.94-.73c-1.79,0-3.59,0-5.38,0a.86.86,0,0,0-1,.79c-.41,1.7-.92,3.38-1.31,5.09-.15.66-.43.92-1.08.84a5.57,5.57,0,0,0-.69,0c-2.31,0-2.29,0-1.67-2.16Q15.91,23.7,18.68,14c0-.11.08-.21.11-.33C19.26,11.6,19.26,11.6,21.47,11.6Zm0,3.88c-.81,3.21-1.55,6.19-2.34,9.17-.16.59.06.65.53.65.8,0,1.6,0,2.41,0,2,0,2,0,1.5-1.91C22.93,20.82,22.25,18.27,21.51,15.48Z"/><path class="cls-1" d="M34.16,26.61c0-2.56,0-5.12,0-7.68,0-.77.16-1,1-1,2.92,0,2.92,0,2.92,2.89,0,4.58,0,9.17,0,13.75,0,.77-.16,1.05-1,1.05-2.91,0-2.91,0-2.91-2.91Q34.16,29.65,34.16,26.61Z"/><path class="cls-1" d="M36.08,11a2.1,2.1,0,0,1,2.22,2.21,2.07,2.07,0,0,1-2.22,2.2,2,2,0,0,1-2.2-2.19A2.07,2.07,0,0,1,36.08,11Z"/></g></g></svg>