<svg xmlns="http://www.w3.org/2000/svg" viewBox="0 0 56.91 51.26"><defs><style>.cls-1{fill:#ccc;}</style></defs><title>Asset 18</title><g id="Layer_2" data-name="Layer 2"><g id="Layer_1-2" data-name="Layer 1"><path class="cls-1" d="M56.86,18.12l-.37-.52c-2.87-4-5.71-8-8.68-11.85C46.75,4.37,45.71,3,44.67,1.58c0-.05-.07-.11-.15-.12l-.59-.06-1.44-.15L41,1.09,39.57.94,38.07.78,36.65.63,35.15.47,33.71.31,32.25.16,30.81,0c-.5-.05-1,.45-1.51.39-.21,0-.43.47-.64.47h-.37c-.22,0-.44-.49-.66-.47C27,.46,26.46.24,25.87.31s-1,0-1.45,0-1,0-1.47.09-1,.07-1.44.12L20,.67,18.59.82,17.13,1l-1.47.16-1.48.16-1.42.15-.35,0c-.09,0-.12.07-.16.12C11.2,3,10.17,4.38,9.11,5.76c-3,4-5.48,8-8.41,12.05-.09.12.15.24.15.36v.06L0,18.86H0s0-.27.06-.25C1,19.72,2,20.67,3,21.79c1.49,1.74,3,3.39,4.48,5.13,1.26,1.46,2.51,2.88,3.77,4.34L15.32,36,19.1,40.4l4.48,5.2c1.27,1.47,2.78,2.94,4,4.42.33.38.23.75,1.23,1.13h0s-.22,0-.21,0,.11.09.15,0,.06,0,.06,0h0s-.1,0-.07-.08c.66-.77,1.24-1.53,1.9-2.3,1.67-1.94,3.3-3.88,5-5.82l4.79-5.58,4.67-5.44,5-5.78,4.85-5.64,2-2.29C56.94,18.17,56.88,18.14,56.86,18.12Z"/></g></g></svg>