<svg xmlns="http://www.w3.org/2000/svg" viewBox="0 0 47.14 51.82"><defs><style>.cls-1{fill:#ccc;}</style></defs><title>Asset 9</title><g id="Layer_2" data-name="Layer 2"><g id="Layer_1-2" data-name="Layer 1"><path class="cls-1" d="M46.53,10c-.54-3.3-2-5.82-5.36-7l-.08,0A35,35,0,0,0,31,.45,61.58,61.58,0,0,0,13.26.87,27.81,27.81,0,0,0,3.93,4.11,5.72,5.72,0,0,0,1.31,7.47,29.67,29.67,0,0,0,0,16.1c-.12,5.55.5,11,2.83,16.07C7,41.24,14,47.49,23,51.69a1.4,1.4,0,0,0,1.28-.06,40.8,40.8,0,0,0,18.86-17.1c3-5.35,4-11.24,4-18.48A39.54,39.54,0,0,0,46.53,10ZM39.88,32.76A37.37,37.37,0,0,1,24.05,47.64a.9.9,0,0,1-.92,0c-7.56-4-13.59-9.5-17.08-17.44A31.66,31.66,0,0,1,3.8,20.16a36.19,36.19,0,0,1,.56-9.88A4.47,4.47,0,0,1,7.14,6.58a34.57,34.57,0,0,1,8.59-2.34A55.56,55.56,0,0,1,26,3.76,41.22,41.22,0,0,1,39.12,6.18,5.41,5.41,0,0,1,42.95,11a54.66,54.66,0,0,1,.55,6.46C43.33,22.59,42.61,27.93,39.88,32.76Z"/><path class="cls-1" d="M32.09,24.29c.06,1.44-.07,1.7-1.37,1.88,1.3-.18,1.43-.44,1.37-1.88v-.06A.56.56,0,0,0,32,24a21,21,0,0,0-4.42-11.83c-1.28-1.77-3.12-3.12-4-5.21h0a1.23,1.23,0,0,0-.07-.16s-.08,0-.08,0c-.25,1.33-1.5,1.87-2.23,2.82h0a13.15,13.15,0,0,0-2.85,3.64h0a16.49,16.49,0,0,0-2.51,6.09c1.19,3,2.08,6.07,3.12,9.11l1.15,3.35q-.58-1.68-1.15-3.35c-1-3-1.93-6.12-3.12-9.11a9.81,9.81,0,0,0-.68,3.46c-.6,7,2.06,12.51,7.49,16.81h0c.07.06.17.12.17.18h0a7.42,7.42,0,0,1,.38,1.07c.11,1.09.23,2.18.34,3.27.94.48.95.48.92-.51,0-.14,0-1.52,0-1.66.1-1.26-.2-4,.55-5h0c.76,0,1.42.24,2-.39,2.62-2.81,4.4-5.44,4.9-9.28A7.21,7.21,0,0,0,32.09,24.29Zm-8.34-10h0Zm0,0a1.59,1.59,0,0,1-.1.31A2.25,2.25,0,0,1,23.74,14.32Zm0,1.62h0Zm0,.2h0Zm.09-.23h0ZM24.18,39l.14-.13a9.73,9.73,0,0,1-.54-2.18,9.74,9.74,0,0,0,.54,2.18l-.13.13a.87.87,0,0,0,.67.47C24.52,39.47,24.34,39.24,24.18,39Z"/></g></g></svg>