<svg xmlns="http://www.w3.org/2000/svg" viewBox="0 0 51.94 51.89"><defs><style>.cls-1{fill:#ccc;}</style></defs><title>Asset 8</title><g id="Layer_2" data-name="Layer 2"><g id="Layer_1-2" data-name="Layer 1"><path class="cls-1" d="M0,26.45q0-.39,0-.78a3.71,3.71,0,0,0,.09-.44c.05-.66.08-1.32.14-2a21.52,21.52,0,0,1,.44-2.73,25.72,25.72,0,0,1,2.73-7.15,26.23,26.23,0,0,1,5.72-7,26,26,0,0,1,8.74-5A23.9,23.9,0,0,1,22.78.23c.78-.09,1.56-.16,2.35-.2a23.61,23.61,0,0,1,3.52.11A26,26,0,0,1,44.31,7.46l.21.18A24.28,24.28,0,0,0,47.27,2.8c0,.13.08.2.1.27.78,2.35,1.51,4.72,2.17,7.11S50.78,15,51.21,17.4c.27,1.5.48,3,.61,4.52.07.85.12,1.7.12,2.55,0,.56,0,1.11,0,1.67s-.1,1.31-.15,2a24.1,24.1,0,0,1-.35,2.57,25.36,25.36,0,0,1-2.29,6.8,26.09,26.09,0,0,1-7.63,9.17,25.79,25.79,0,0,1-9.18,4.46,23,23,0,0,1-3.44.64c-.63.06-1.26.14-1.89.16-.87,0-1.74,0-2.62,0A18.93,18.93,0,0,1,22,51.62a25.79,25.79,0,0,1-3.17-.68,26.08,26.08,0,0,1-9.63-5.07l-.12-.11a2.45,2.45,0,0,0,1.63.1,2.2,2.2,0,0,0,1.3-1,2.27,2.27,0,0,0-.39-2.8,2.23,2.23,0,0,0-2.79-.25A2.26,2.26,0,0,0,7.95,43a2.32,2.32,0,0,0,.23,1.93,3.66,3.66,0,0,1-.33-.29,26.05,26.05,0,0,1-6.66-11A23.81,23.81,0,0,1,.4,30.16c-.09-.66-.18-1.31-.25-2,0-.46,0-.92-.07-1.38A2,2,0,0,0,0,26.45Zm47-21-.13.21c-.14.27-.28.54-.43.8a19.27,19.27,0,0,1-4.18,4.92,25.48,25.48,0,0,1-4.68,3.18,24.41,24.41,0,0,1-5.21,2.08,28.29,28.29,0,0,1-5.27.8l-2.2.13c-.73,0-1.47.07-2.2.14s-1.53.15-2.3.26a16.64,16.64,0,0,0-3.79,1,14.77,14.77,0,0,0-5.48,3.65,13.29,13.29,0,0,0-3.59,8.13,11.88,11.88,0,0,0,.07,2.55,10.78,10.78,0,0,0,.75,2.83,8,8,0,0,0,2,2.86A7.49,7.49,0,0,0,12,40.05a.76.76,0,0,0,.55.07c1.67-.37,3.35-.73,5-1.11,2.25-.52,4.49-1.1,6.71-1.77a32.38,32.38,0,0,0,6.59-2.76,34.7,34.7,0,0,0,9.68-8,24.22,24.22,0,0,0,4-6.65l.06-.12a.17.17,0,0,1,0,.11,22.28,22.28,0,0,1-.8,2.69,26.7,26.7,0,0,1-3.23,6.1,32.92,32.92,0,0,1-7,7.34A27.92,27.92,0,0,1,28,39.27a37.08,37.08,0,0,1-4.22,1.55l-5.55,1.73c-1,.32-2,.65-2.95,1.06l-.18.09v0h.18c.64-.08,1.27-.16,1.91-.23s1-.1,1.57-.11c1.77,0,3.53,0,5.3.06,1,0,2,.07,3,.09,1.87,0,3.74.06,5.6-.07.65,0,1.29-.08,1.94-.14a28.67,28.67,0,0,0,3-.46,19.37,19.37,0,0,0,4.56-1.52A13.46,13.46,0,0,0,47,37.62a16.46,16.46,0,0,0,2.63-4.82,23.31,23.31,0,0,0,1.25-7.17c0-1,0-1.93,0-2.9,0-.73-.09-1.47-.17-2.2-.1-.92-.22-1.83-.36-2.74-.22-1.4-.5-2.78-.83-4.15C48.8,11,48,8.3,47.13,5.68,47.11,5.61,47.08,5.55,47,5.44Z"/></g></g></svg>