<svg xmlns="http://www.w3.org/2000/svg" viewBox="0 0 50.58 51.85"><defs><style>.cls-1{fill:#ccc;}</style></defs><title>Asset 12</title><g id="Layer_2" data-name="Layer 2"><g id="Layer_1-2" data-name="Layer 1"><path class="cls-1" d="M.52,51.85A3.25,3.25,0,0,1,.05,49.4C0,38.49.08,27.57,0,16.65a3.83,3.83,0,0,1,2.2-3.88c7-3.94,14-8,21-12.07a3.41,3.41,0,0,1,4-.11Q37.67,6.83,48.34,12.81a3.9,3.9,0,0,1,2.24,3.9c-.07,10.92-.06,21.83,0,32.75,0,2-.15,2.78-2.32,1.44-4.3-2.67-8.72-5.14-13.15-7.6a3.41,3.41,0,0,1-2-3.49c.11-4.55,0-9.11.06-13.67a2.72,2.72,0,0,0-1.64-2.9,1.85,1.85,0,0,1-.21-.14c-6.09-3.8-6.07-3.76-12.18,0a3.41,3.41,0,0,0-1.86,3.33c.08,4.55,0,9.11,0,13.67,0,.93.18,1.94-.84,2.53Z"/></g></g></svg>